<?xml version="1.0" encoding="UTF-8"?>
<svg width="64" height="64" version="1.1" xmlns="http://www.w3.org/2000/svg" xmlns:cc="http://creativecommons.org/ns#" xmlns:dc="http://purl.org/dc/elements/1.1/" xmlns:rdf="http://www.w3.org/1999/02/22-rdf-syntax-ns#" xmlns:xlink="http://www.w3.org/1999/xlink">
 <defs>
 <style type="text/css" id="current-color-scheme">
            .ColorScheme-Text {
                color:#039bfc;
            }
        </style>

        <filter id="glow" x="-50%" y="-50%" width="200%" height="200%">
            <feComponentTransfer in="SourceAlpha" result="adjustedAlpha">
                <feFuncA type="table" tableValues="0 0.5 1"/>
            </feComponentTransfer>
            <feGaussianBlur in="adjustedAlpha" stdDeviation="2" result="blur"/>
            <feFlood flood-color="#039bfc" result="color"/>
            <feComposite in="color" in2="blur" operator="in" result="softGlowColored"/>
            <feMerge>
                <feMergeNode in="softGlowColored"/>
                <feMergeNode in="SourceGraphic"/>
            </feMerge>
        </filter>

  <linearGradient id="b" x1="399.57" x2="399.57" y1="545.8" y2="517.8" gradientTransform="matrix(2.1429 0 0 2.1429 -723.44 -1107.5)" gradientUnits="userSpaceOnUse">
   <stop stop-color="#3889e9" offset="0"/>
   <stop stop-color="#5ea5fb" offset="1"/>
  </linearGradient>
  <linearGradient id="b-3" x1="399.57" x2="399.57" y1="545.8" y2="517.8" gradientTransform="matrix(2.1429 0 0 2.1429 -753.02 -1107.5)" gradientUnits="userSpaceOnUse">
   <stop stop-color="#3889e9" offset="0"/>
   <stop stop-color="#5ea5fb" offset="1"/>
  </linearGradient>
  <linearGradient id="linearGradient1299" x1="5" x2="195" y1="174.76" y2="174.76" gradientTransform="matrix(.32632 0 0 .095367 -.63187 42.834)" gradientUnits="userSpaceOnUse">
   <stop stop-color="#039bfc" stop-opacity="0" offset="0"/>
   <stop stop-color="#039bfc" offset=".225"/>
   <stop stop-color="#039bfc" offset=".5"/>
   <stop stop-color="#039bfc" offset=".775"/>
   <stop stop-color="#039bfc" stop-opacity="0" offset="1"/>
  </linearGradient>
 </defs>

 <circle cx="134.94" cy="32.044" r="0" fill="url(#b)" stroke-width="1.5715"/>
 <circle cx="105.36" cy="32.044" r="0" fill="url(#b-3)" stroke-width="1.5715"/>
 <rect x=".99971" y="59" width="62.001" height="1" ry="0" fill="url(#linearGradient1299)" stroke-width="3.7796" style="mix-blend-mode:normal;paint-order:stroke fill markers" filter="url(#glow)"/>
 <g stroke-linecap="round" stroke-linejoin="round">
  <rect x="9.5" y="9.5" width="45" height="45" ry="5" fill="none" stroke="#039bfc" style="paint-order:stroke fill markers" filter="url(#glow)"/>
 </g>
 <g transform="translate(13,13) scale(0.15)">
	<path style="fill:currentColor;fill-opacity:1;stroke:none" d="M104,10.6c-6.8,1.7-14.3,6.9-17.3,12l-1.2,2h-3c-2.3,0-3.2,0.2-4.2,1c-2.7,2.1-2.7,2.2-2.7,21.9c0,20,0.1,20.6,3,22.4c1.5,0.9,2.3,1,31.7,1c34,0,32.1,0.2,33.9-3.6c0.9-1.9,1-2.8,0.8-20.3c-0.1-17-0.2-18.3-1-19.6c-1.3-1.9-3.1-2.7-6.2-2.7c-2.5,0-2.7-0.1-3.4-1.5c-2.2-4.3-9-9.6-15-11.7C115,9.9,108.2,9.5,104,10.6z" class="ColorScheme-Text" filter="url(#glow)"/><path style="fill:currentColor;fill-opacity:1;stroke:none" d="M34.8,35.6c-0.9,0.2-2.1,1.2-2.9,2.2l-1.3,1.7v91.9c0,100.7-0.2,94.1,2.9,96c1.5,0.9,2.3,1,27.3,1h25.8v-11.2V206h-16c-15.1,0-16.2,0-17.6-1c-0.9-0.5-1.9-1.5-2.4-2.2c-0.8-1.2-0.9-4.7-1-69.8c0-45.8,0-69.1,0.4-70.3c0.3-1,1.2-2.4,2.1-3.3l1.7-1.5h7.8h7.9V46.5V35.1l-16.5,0C43.8,35.2,35.7,35.4,34.8,35.6z" class="ColorScheme-Text" filter="url(#glow)"/><path style="fill:currentColor;fill-opacity:1;stroke:none" d="M151.3,46.5V58h7.5c8.3,0,9.2,0.2,10.9,2.8c1,1.4,1.1,2.2,1.1,5.8v4.2h9.5h9.5V55.3c0-17.6,0-17.8-3.5-19.3c-1.9-0.8-3.3-0.9-18.5-0.9h-16.6L151.3,46.5L151.3,46.5z" class="ColorScheme-Text" filter="url(#glow)"/><path style="fill:currentColor;fill-opacity:1;stroke:none" d="M141.1,81.6c-1,0.3-2.6,1.1-3.4,1.7c-0.9,0.5-9.8,10.3-19.8,21.7c-18.9,21.7-19.9,23-20.9,28.3c-0.3,1.7-0.4,21.3-0.4,55.4c0.1,50,0.2,52.9,1,54.1c0.5,0.8,1.5,1.8,2.4,2.2c1.5,0.9,2.9,1,61,1c58.1,0,59.6,0,61-1c0.9-0.5,1.9-1.5,2.4-2.2c0.8-1.2,0.9-4.9,0.9-79.4c0-73.7,0-78.2-0.9-79.6c-1.7-3.1,0.4-3-42.6-3C149.6,80.9,142.7,81,141.1,81.6z M207,102c3,1.6,2.9-2.2,2.9,61.6v58l-1.2,1.4c-0.6,0.8-1.8,1.7-2.5,2c-1,0.4-13.2,0.5-46,0.4l-44.7-0.1l-1.6-1.8l-1.6-1.8v-42c0-32.4,0.1-42.3,0.6-43.2c0.3-0.6,1.2-1.6,1.9-2.1c1.2-1,2.1-1,12.5-1.2c10.9-0.2,11.1-0.2,12.3-1.4c0.7-0.7,1.4-2,1.7-2.9c0.2-1,0.5-6.8,0.5-13.1v-11.3l1.6-1.6l1.6-1.6h30.3C201.5,101.3,205.8,101.4,207,102z" class="ColorScheme-Text" filter="url(#glow)"/><path style="fill:currentColor;fill-opacity:1;stroke:none" d="M129.4,151v6.4h31.7h31.7V151v-6.4h-31.7h-31.7V151z" class="ColorScheme-Text" filter="url(#glow)"/><path style="fill:currentColor;fill-opacity:1;stroke:none" d="M129.4,174.8v6.4h31.7h31.7v-6.4v-6.4h-31.7h-31.7V174.8z" class="ColorScheme-Text" filter="url(#glow)"/><path style="fill:currentColor;fill-opacity:1;stroke:none" d="M129.4,198.6v6.4h31.7h31.7v-6.4v-6.4h-31.7h-31.7V198.6z" class="ColorScheme-Text" filter="url(#glow)"/>
 </g>
</svg>
