<?xml version="1.0" encoding="utf-8"?>
<!-- Svg Vector Icons : http://www.onlinewebfonts.com/icon -->
<!DOCTYPE svg PUBLIC "-//W3C//DTD SVG 1.1//EN" "http://www.w3.org/Graphics/SVG/1.1/DTD/svg11.dtd">
<svg version="1.1" xmlns="http://www.w3.org/2000/svg" xmlns:xlink="http://www.w3.org/1999/xlink" x="0px" y="0px" viewBox="0 0 256 256" enable-background="new 0 0 256 256" xml:space="preserve">
<metadata> Svg Vector Icons : http://www.onlinewebfonts.com/icon </metadata>
<g><g><path style="fill:#039bfc;fill-opacity:1;stroke:none" d="M206.8,128.3c20.8,22.4,30.1,44.5,22,58.7c-8.1,14.1-31.6,17-61.1,10.1c-8.8,29.6-23.2,48.9-39.4,48.9c-16.2,0-30.6-19.4-39.4-49c-29.9,7.1-53.7,4.3-61.8-10c-8.1-14.2,1.3-36.3,22.1-58.7C28,105.6,18.4,83.3,26.6,69c8.2-14.3,32.2-17.1,62.3-9.9C97.7,29.4,112.1,10,128.3,10c16.2,0,30.6,19.4,39.4,49c29.8-7.1,53.6-4.2,61.7,10C237.6,83.3,228,105.7,206.8,128.3L206.8,128.3z M35,73.9c-6.2,10.9,2.4,28.8,20.6,47.8c7.4-7.2,16-14.4,25.5-21.4C82.3,88.9,84,78,86.5,68.1C61,61.5,41.3,63,35,73.9z M80.1,113.1c-6.5,5-12.5,10-17.8,15.1c5.4,5.1,11.3,10.1,17.9,15.1c-0.3-5-0.5-10.1-0.5-15.3C79.7,122.9,79.8,118,80.1,113.1z M81.1,156.1c-9.5-6.9-18.1-14.1-25.5-21.3c-17.9,18.8-26.2,36.5-20,47.3c6.2,10.9,25.7,12.4,51,6C84.1,178.2,82.2,167.5,81.1,156.1z M165.1,162.8c-4,2.7-8.2,5.3-12.5,7.8c-4.4,2.6-8.7,4.9-13.1,7.1c7.5,3.2,14.8,5.9,21.7,8.1C162.8,178.7,164.1,170.9,165.1,162.8z M128.3,236.2c12.4,0,23.5-16.2,30.6-41.3c-9.8-2.8-20.3-6.8-30.8-11.6c-10.4,4.7-20.6,8.5-30.3,11.4C104.9,219.8,115.9,236.2,128.3,236.2L128.3,236.2z M95.5,185.6c6.7-2.1,13.8-4.7,21-7.8c-4.4-2.2-8.8-4.6-13.2-7.2c-4.1-2.4-8-4.8-11.8-7.3C92.5,171.2,93.9,178.5,95.5,185.6z M91.6,93.1c4-2.6,8.1-5.2,12.4-7.7c4.2-2.5,8.4-4.7,12.6-6.9c-7.3-3.1-14.4-5.9-21.1-7.9C93.8,77.6,92.6,85.2,91.6,93.1z M128.3,19.8c-12.5,0-23.5,16.4-30.7,41.7c9.7,2.8,19.9,6.8,30.3,11.5c10.6-4.9,21-8.8,30.9-11.7C151.7,36.2,140.7,19.8,128.3,19.8L128.3,19.8z M161.1,70.4c-7,2.2-14.3,4.9-21.8,8.1c4.2,2.2,8.5,4.5,12.7,6.9c4.6,2.6,8.9,5.4,13.2,8.2C164.2,85.4,162.8,77.7,161.1,70.4z M166.5,106.3c-6.1-4.2-12.5-8.4-19.3-12.3c-6.5-3.8-12.9-7.1-19.3-10.2c-6.3,3.1-12.7,6.5-19.1,10.2c-6.5,3.8-12.6,7.7-18.5,11.7c-0.6,7.2-0.9,14.6-0.9,22.3c0,7.8,0.3,15.4,0.9,22.7c5.7,3.9,11.7,7.7,18,11.4c6.7,3.9,13.3,7.3,19.8,10.5c6.5-3.1,13-6.6,19.6-10.5c6.5-3.8,12.7-7.8,18.6-11.8c0.6-7.2,0.9-14.6,0.9-22.3C167.3,120.6,167,113.3,166.5,106.3L166.5,106.3z M220.4,182.1c6.2-10.8-2.2-28.5-20.1-47.2c-7.3,7-15.6,14-24.8,20.7c-1.2,11.6-3,22.7-5.4,32.7C195,194.5,214.3,192.9,220.4,182.1z M176.6,142.8c6.3-4.8,12-9.6,17.2-14.4c-5.2-4.9-10.8-9.8-17.1-14.7c0.2,4.7,0.4,9.5,0.4,14.3C177,133,176.8,137.9,176.6,142.8z M221,73.9c-6.2-10.9-25.7-12.4-50.9-6c2.5,10.1,4.4,21.2,5.5,33c9.2,6.8,17.5,13.8,24.8,20.9C218.7,102.8,227.2,84.9,221,73.9z M129.8,146.7c-10.7,0-19.3-8.7-19.3-19.5c0-10.8,8.6-19.5,19.3-19.5c10.7,0,19.3,8.7,19.3,19.5C149.1,138,140.5,146.7,129.8,146.7z"/></g></g>
</svg>