<?xml version="1.0" encoding="UTF-8"?>
<svg width="64" height="64" version="1.1" xmlns="http://www.w3.org/2000/svg" xmlns:cc="http://creativecommons.org/ns#" xmlns:dc="http://purl.org/dc/elements/1.1/" xmlns:rdf="http://www.w3.org/1999/02/22-rdf-syntax-ns#" xmlns:xlink="http://www.w3.org/1999/xlink">
 <defs>
 <style type="text/css" id="current-color-scheme">
            .ColorScheme-Text {
                color:#039bfc;
            }
        </style>

        <filter id="glow" x="-50%" y="-50%" width="200%" height="200%">
            <feComponentTransfer in="SourceAlpha" result="adjustedAlpha">
                <feFuncA type="table" tableValues="0 0.5 1"/>
            </feComponentTransfer>
            <feGaussianBlur in="adjustedAlpha" stdDeviation="2" result="blur"/>
            <feFlood flood-color="#039bfc" result="color"/>
            <feComposite in="color" in2="blur" operator="in" result="softGlowColored"/>
            <feMerge>
                <feMergeNode in="softGlowColored"/>
                <feMergeNode in="SourceGraphic"/>
            </feMerge>
        </filter>

  <linearGradient id="b" x1="399.57" x2="399.57" y1="545.8" y2="517.8" gradientTransform="matrix(2.1429 0 0 2.1429 -723.44 -1107.5)" gradientUnits="userSpaceOnUse">
   <stop stop-color="#3889e9" offset="0"/>
   <stop stop-color="#5ea5fb" offset="1"/>
  </linearGradient>
  <linearGradient id="b-3" x1="399.57" x2="399.57" y1="545.8" y2="517.8" gradientTransform="matrix(2.1429 0 0 2.1429 -753.02 -1107.5)" gradientUnits="userSpaceOnUse">
   <stop stop-color="#3889e9" offset="0"/>
   <stop stop-color="#5ea5fb" offset="1"/>
  </linearGradient>
  <linearGradient id="linearGradient1299" x1="5" x2="195" y1="174.76" y2="174.76" gradientTransform="matrix(.32632 0 0 .095367 -.63187 42.834)" gradientUnits="userSpaceOnUse">
   <stop stop-color="#039bfc" stop-opacity="0" offset="0"/>
   <stop stop-color="#039bfc" offset=".225"/>
   <stop stop-color="#039bfc" offset=".5"/>
   <stop stop-color="#039bfc" offset=".775"/>
   <stop stop-color="#039bfc" stop-opacity="0" offset="1"/>
  </linearGradient>
 </defs>

 <circle cx="134.94" cy="32.044" r="0" fill="url(#b)" stroke-width="1.5715"/>
 <circle cx="105.36" cy="32.044" r="0" fill="url(#b-3)" stroke-width="1.5715"/>
 <rect x=".99971" y="59" width="62.001" height="1" ry="0" fill="url(#linearGradient1299)" stroke-width="3.7796" style="mix-blend-mode:normal;paint-order:stroke fill markers" filter="url(#glow)"/>
 <g stroke-linecap="round" stroke-linejoin="round">
  <rect x="9.5" y="9.5" width="45" height="45" ry="5" fill="none" stroke="#039bfc" style="paint-order:stroke fill markers" filter="url(#glow)"/>
 </g>
 <g transform="translate(13,13) scale(0.15)">
	<path d="M242.7,180.4L175.9,128l66.8-52.4c2.5-1.8,3.6-4.2,3.3-7.4c-0.4-3.1-2-5.3-4.6-6.7l-16.9-8.4c-1.1-0.6-2.4-0.9-3.8-0.9c-1.5,0-2.8,0.4-4.1,1.1l-90.9,50.9l-14.5-8.7c-0.7-0.4-1.2-0.6-1.6-0.7c1.2-4.3,1.7-8.5,1.3-12.8c-0.6-6.8-3.1-13.2-7.4-19.5c-4.3-6.2-10.1-11.6-17.4-16.2C74.7,39,62.5,35.3,49.8,35.3c-12,0-21.8,3.5-29.2,10.4c-3.8,3.4-6.6,7.5-8.4,12.2c-1.8,4.7-2.5,9.7-2,14.9c0.6,6.7,3.1,13.1,7.4,19.4c4.3,6.2,10,11.7,17.2,16.3c11.6,7.4,23.8,11.1,36.6,11.1c7.3,0,13.9-1.3,19.9-4.1c0.8,1.1,1.8,2.1,2.9,2.9l16.1,9.6l-16.1,9.6c-1.1,0.8-2.1,1.8-2.9,2.9c-6-2.7-12.6-4.1-19.9-4.1c-12.8,0-25,3.7-36.6,11.1c-7.2,4.6-13,10.1-17.2,16.3c-4.3,6.2-6.8,12.7-7.4,19.4c-1,10.8,2.5,19.9,10.4,27.3c7.5,6.8,17.3,10.3,29.2,10.3c12.7,0,24.9-3.7,36.5-11.1c7.3-4.6,13.1-10.1,17.4-16.3c4.3-6.2,6.8-12.7,7.4-19.4c0.4-4.2-0.1-8.5-1.3-12.8c0.4-0.1,0.9-0.3,1.6-0.6l14.5-8.7l90.8,51c1.2,0.7,2.6,1.1,4.1,1.1c1.4,0,2.7-0.3,3.8-0.9l16.9-8.4c2.6-1.4,4.2-3.6,4.6-6.7C246.2,184.6,245.1,182.2,242.7,180.4z M86.3,93.8c-3.4,3.2-8.4,4.7-14.9,4.7c-8.8,0-17.2-2.6-25.3-7.8c-7.1-4.5-11.8-9.6-14-15.4c-2.2-5.8-1.3-10.5,2.8-14.2c3.4-3.2,8.4-4.7,14.9-4.7c8.8,0,17.2,2.6,25.3,7.8c7.1,4.5,11.8,9.6,14,15.4C91.2,85.4,90.3,90.1,86.3,93.8z M89,176.5c-2.2,5.8-6.8,10.9-14,15.4c-8.1,5.2-16.5,7.8-25.3,7.8c-6.5,0-11.5-1.6-14.9-4.7c-4-3.7-5-8.4-2.8-14.2c2.2-5.8,6.8-10.9,14-15.4c8.1-5.2,16.5-7.8,25.3-7.8c6.5,0,11.5,1.6,14.9,4.7C90.3,165.9,91.2,170.7,89,176.5z M98.5,111.1l1.2-1.2c0.1-0.1,0.2-0.2,0.4-0.3c0.2-0.1,0.4-0.3,0.5-0.5c0.4-0.4,1-0.9,1.6-1.6c0.6-0.7,1.1-1.2,1.3-1.4l3.4-3.4l10.4,6.2l-1.9,1.1c-2.9,1.8-4.3,4.2-4.3,7.4v1.4L98.5,111.1z M128,140.6l-21.1,12.6l-3.4-3.4c-0.4-0.4-0.8-0.9-1.4-1.6c-0.6-0.7-1.1-1.2-1.4-1.6c-0.4-0.4-0.7-0.6-0.9-0.8l-1.2-1.1l21.1-12.6v-14.9l101.1-56.7l16.9,8.4l-97,75.9L128,140.6z M220.7,195.4L144,152.3c1-0.4,1.5-0.7,1.7-0.9l23.3-18.2l68.5,53.7L220.7,195.4z" style="fill:#039bfc;fill-opacity:1;stroke:none"/><path d="M136.4,119.6c-2.3,0-4.3,0.8-5.9,2.5c-1.7,1.7-2.5,3.6-2.5,5.9c0,2.3,0.8,4.3,2.5,5.9c1.7,1.7,3.6,2.5,5.9,2.5c2.3,0,4.3-0.8,5.9-2.5c1.7-1.7,2.5-3.6,2.5-5.9c0-2.3-0.8-4.3-2.5-5.9C140.7,120.4,138.7,119.6,136.4,119.6z" style="fill:#039bfc;fill-opacity:1;stroke:none" />
 </g>
</svg>
