<?xml version="1.0" encoding="UTF-8"?>
<svg width="64" height="64" version="1.1" xmlns="http://www.w3.org/2000/svg" xmlns:cc="http://creativecommons.org/ns#" xmlns:dc="http://purl.org/dc/elements/1.1/" xmlns:rdf="http://www.w3.org/1999/02/22-rdf-syntax-ns#" xmlns:xlink="http://www.w3.org/1999/xlink">
 <defs>
 <style type="text/css" id="current-color-scheme">
            .ColorScheme-Text {
                color:#039bfc;
            }
        </style>

        <filter id="glow" x="-50%" y="-50%" width="200%" height="200%">
            <feComponentTransfer in="SourceAlpha" result="adjustedAlpha">
                <feFuncA type="table" tableValues="0 0.5 1"/>
            </feComponentTransfer>
            <feGaussianBlur in="adjustedAlpha" stdDeviation="2" result="blur"/>
            <feFlood flood-color="#039bfc" result="color"/>
            <feComposite in="color" in2="blur" operator="in" result="softGlowColored"/>
            <feMerge>
                <feMergeNode in="softGlowColored"/>
                <feMergeNode in="SourceGraphic"/>
            </feMerge>
        </filter>

  <linearGradient id="b" x1="399.57" x2="399.57" y1="545.8" y2="517.8" gradientTransform="matrix(2.1429 0 0 2.1429 -723.44 -1107.5)" gradientUnits="userSpaceOnUse">
   <stop stop-color="#3889e9" offset="0"/>
   <stop stop-color="#5ea5fb" offset="1"/>
  </linearGradient>
  <linearGradient id="b-3" x1="399.57" x2="399.57" y1="545.8" y2="517.8" gradientTransform="matrix(2.1429 0 0 2.1429 -753.02 -1107.5)" gradientUnits="userSpaceOnUse">
   <stop stop-color="#3889e9" offset="0"/>
   <stop stop-color="#5ea5fb" offset="1"/>
  </linearGradient>
  <linearGradient id="linearGradient1299" x1="5" x2="195" y1="174.76" y2="174.76" gradientTransform="matrix(.32632 0 0 .095367 -.63187 42.834)" gradientUnits="userSpaceOnUse">
   <stop stop-color="#039bfc" stop-opacity="0" offset="0"/>
   <stop stop-color="#039bfc" offset=".225"/>
   <stop stop-color="#039bfc" offset=".5"/>
   <stop stop-color="#039bfc" offset=".775"/>
   <stop stop-color="#039bfc" stop-opacity="0" offset="1"/>
  </linearGradient>
 </defs>

 <circle cx="134.94" cy="32.044" r="0" fill="url(#b)" stroke-width="1.5715"/>
 <circle cx="105.36" cy="32.044" r="0" fill="url(#b-3)" stroke-width="1.5715"/>
 <rect x=".99971" y="59" width="62.001" height="1" ry="0" fill="url(#linearGradient1299)" stroke-width="3.7796" style="mix-blend-mode:normal;paint-order:stroke fill markers" filter="url(#glow)"/>
 <g stroke-linecap="round" stroke-linejoin="round">
  <rect x="9.5" y="9.5" width="45" height="45" ry="5" fill="none" stroke="#039bfc" style="paint-order:stroke fill markers" filter="url(#glow)"/>
 </g>
 <g transform="translate(13,13) scale(0.15)">
	<path style="fill:#039bfc;fill-opacity:1;stroke:none" d="M131.3,142.9c0.9-0.8,3.8-3.8,3.9-8.6V134l0-0.3c-0.1-1.2-0.7-5.2-3.1-7.5c-1.2-1.1-10.4-8.9-10.5-9L65.8,73.4c-2.1-1.9-4.5-2.9-7-2.9c-3.7,0-8.5,2.3-9.7,8.7c-0.3,1.7-0.3,3.3-0.3,3.4v26.1H23c-4.3,0-8,1.6-10.4,4.6c-0.6,0.7-1.1,1.5-1.5,2.5c-0.1,0.3-0.2,0.6-0.3,0.7l0,0.1c-0.2,0.6-0.4,1.1-0.5,1.7l0,0.1c0,0.2-0.1,0.4-0.1,0.6c-0.1,0.5-0.1,1-0.1,1.5c0,0,0,0.1,0,0.2v0.3c0,0.4,0,0.9,0.1,1.3v22c0,7.2,4.6,11.9,9.1,13.3c0.9,0.3,1.8,0.4,2.6,0.4h0.1l26.5-0.3v29.7c0,1.7,0.5,3.3,1.3,4.6c1.4,2.2,4.4,4.6,8.6,4.6c3.3,0,6.4-1.4,9.3-4.3c2.3-2.2,33.7-26.5,63.6-49.4L131.3,142.9z M125.9,136.8c-10.5,8.1-60.8,46.7-64.1,49.9l0,0c-0.9,0.9-2.2,2-3.6,2c-1.2,0-1.7-0.8-1.7-0.9c0-0.1-0.1-0.2-0.1-0.3v-37.9L21.9,150c-0.2,0-0.3,0-0.3,0c-0.1,0-3.5-1.2-3.5-5.6v-22.5l0-0.2c0-0.1,0-0.2,0-0.5c0-0.1,0-0.2,0-0.3c0-0.1,0-0.3,0.1-0.6c0,0,0-0.1,0-0.1l0-0.2c0-0.1,0.1-0.3,0.2-0.5l0.1-0.2c0,0,0,0,0-0.1l0,0c0.1-0.3,0.3-0.6,0.4-0.7c0.8-1,2.2-1.6,4.1-1.6h33.8V82.7c0-0.3,0-1.1,0.2-1.9c0.2-1,0.7-2.2,1.8-2.2c0.2,0,0.7,0,1.6,0.8l0.1,0.1l56.1,44.1c0.8,0.7,8.7,7.4,9.9,8.4c0.2,0.4,0.5,1.4,0.7,2.3C127,135.6,126.2,136.5,125.9,136.8z"/><path style="fill:#039bfc;fill-opacity:1;stroke:none" d="M243.1,76.4l-51.7-55.9c-2.1-2.2-5-3.5-8.1-3.5H98.9c-14,0-25.3,11.4-25.3,25.3v26.4l22,17.4l0-43.8c0-1.9,1.5-3.3,3.3-3.3H176v44c0,4,3.3,7.3,7.3,7.3h40.3l0.1,123.6c0,1.9-1.2,3.4-3.1,3.4H98.9c-1.9,0-3.3-1.5-3.3-3.4V181l-22,17.6v15.2c0,14,11.4,25.3,25.3,25.3h121.8c14,0,25.3-11.4,25.3-25.3v-130C246,81,244.9,78.4,243.1,76.4z M237.8,214.6c0,9.5-7.7,17.2-17.2,17.2H98.9c-9.5,0-17.2-7.7-17.2-17.2v-12.5c0.1-0.4,5.6-4.3,5.6-4.3l0.1,16.8c0,6.3,5.2,11.5,11.5,11.5h121.8c6.3,0,11.2-5.2,11.2-11.5l-0.1-131.6h-47.6V31.6H98.9c-6.3,0-11.5,5.2-11.5,11.5l0,24.9l-5.7-5V43.1c0-9.5,7.7-17.2,17.2-17.2h84.5c0.8,0,1.6,0.3,2.1,0.9l51.7,55.9c0.5,0.5,0.8,1.2,0.8,2L237.8,214.6L237.8,214.6z"/>
 </g>
</svg>
