<?xml version="1.0" encoding="UTF-8"?>
<svg width="64" height="64" version="1.1" xmlns="http://www.w3.org/2000/svg" xmlns:cc="http://creativecommons.org/ns#" xmlns:dc="http://purl.org/dc/elements/1.1/" xmlns:rdf="http://www.w3.org/1999/02/22-rdf-syntax-ns#" xmlns:xlink="http://www.w3.org/1999/xlink">
 <defs>
 <style type="text/css" id="current-color-scheme">
            .ColorScheme-Text {
                color:#039bfc;
            }
        </style>

        <filter id="glow" x="-50%" y="-50%" width="200%" height="200%">
            <feComponentTransfer in="SourceAlpha" result="adjustedAlpha">
                <feFuncA type="table" tableValues="0 0.5 1"/>
            </feComponentTransfer>
            <feGaussianBlur in="adjustedAlpha" stdDeviation="2" result="blur"/>
            <feFlood flood-color="#039bfc" result="color"/>
            <feComposite in="color" in2="blur" operator="in" result="softGlowColored"/>
            <feMerge>
                <feMergeNode in="softGlowColored"/>
                <feMergeNode in="SourceGraphic"/>
            </feMerge>
        </filter>

  <linearGradient id="b" x1="399.57" x2="399.57" y1="545.8" y2="517.8" gradientTransform="matrix(2.1429 0 0 2.1429 -723.44 -1107.5)" gradientUnits="userSpaceOnUse">
   <stop stop-color="#3889e9" offset="0"/>
   <stop stop-color="#5ea5fb" offset="1"/>
  </linearGradient>
  <linearGradient id="b-3" x1="399.57" x2="399.57" y1="545.8" y2="517.8" gradientTransform="matrix(2.1429 0 0 2.1429 -753.02 -1107.5)" gradientUnits="userSpaceOnUse">
   <stop stop-color="#3889e9" offset="0"/>
   <stop stop-color="#5ea5fb" offset="1"/>
  </linearGradient>
  <linearGradient id="linearGradient1299" x1="5" x2="195" y1="174.76" y2="174.76" gradientTransform="matrix(.32632 0 0 .095367 -.63187 42.834)" gradientUnits="userSpaceOnUse">
   <stop stop-color="#039bfc" stop-opacity="0" offset="0"/>
   <stop stop-color="#039bfc" offset=".225"/>
   <stop stop-color="#039bfc" offset=".5"/>
   <stop stop-color="#039bfc" offset=".775"/>
   <stop stop-color="#039bfc" stop-opacity="0" offset="1"/>
  </linearGradient>
 </defs>

 <circle cx="134.94" cy="32.044" r="0" fill="url(#b)" stroke-width="1.5715"/>
 <circle cx="105.36" cy="32.044" r="0" fill="url(#b-3)" stroke-width="1.5715"/>
 <rect x=".99971" y="59" width="62.001" height="1" ry="0" fill="url(#linearGradient1299)" stroke-width="3.7796" style="mix-blend-mode:normal;paint-order:stroke fill markers" filter="url(#glow)"/>
 <g stroke-linecap="round" stroke-linejoin="round">
  <rect x="9.5" y="9.5" width="45" height="45" ry="5" fill="none" stroke="#039bfc" style="paint-order:stroke fill markers" filter="url(#glow)"/>
 </g>
 <g transform="translate(13,13) scale(0.15)">
	<path style="fill:#039bfc;fill-opacity:1;stroke:none" d="M83,10.9c-1.6,0.5-4,1.7-5.4,2.7C73.9,16.3,31.4,65.2,29.4,69c-2.9,5.8-2.8,3-2.8,75.4c0,63.3,0,66.2,0.9,68c1,2.2,2.6,3.8,4.5,4.5c0.9,0.4,14.3,0.5,41.8,0.5h40.4v-12.8v-12.8l-31.6-0.1c-31.1-0.1-31.6-0.1-32.9-1.1c-0.7-0.5-1.8-1.6-2.3-2.3c-1-1.3-1-1.6-1.1-54l-0.1-52.7l1-1.6c2.5-3.6,2.2-3.5,17.5-3.8c19.3-0.3,17.8,1.3,18.1-19.8c0.3-17.4,0.3-17.6,4.3-19.7l2.1-1h36.7h36.7l2.1,1c1.2,0.7,2.5,1.8,3.1,2.8c1,1.6,1,2.5,1.1,47.7l0.1,46.1h9.5h9.5l-0.1-59.2L187.7,15l-1.1-1.6c-0.6-0.9-2-2-3-2.5c-1.8-1-3-1-49.8-0.9C87.9,10,85.7,10.1,83,10.9z"/><path style="fill:#039bfc;fill-opacity:1;stroke:none" d="M67.7,98.3l0.1,8l39.6,0.1l39.6,0.1v-8.1v-8.1h-39.7H67.6L67.7,98.3z"/><path style="fill:#039bfc;fill-opacity:1;stroke:none" d="M67.6,128.2v7.9h39.7H147v-7.9v-7.9h-39.7H67.6V128.2z"/><path style="fill:#039bfc;fill-opacity:1;stroke:none" d="M160.8,162v16.9l-17.2,0.1l-17.3,0.1l-0.1,16.3l-0.1,16.3l17.2,0.1l17.3,0.1l0.1,17l0.1,17h16.9h16.9l0.1-17l0.1-17l17.3-0.1l17.2-0.1l-0.1-16.3l-0.1-16.3l-17.2-0.1l-17.3-0.1V162v-16.9h-16.9h-16.9V162z"/><path style="fill:#039bfc;fill-opacity:1;stroke:none" d="M67.6,158v8.1h39.7H147V158v-8.1h-39.7H67.6V158z"/>
 </g>
</svg>
