<?xml version="1.0" encoding="UTF-8"?>
<svg width="64" height="64" version="1.1" xmlns="http://www.w3.org/2000/svg" xmlns:cc="http://creativecommons.org/ns#" xmlns:dc="http://purl.org/dc/elements/1.1/" xmlns:rdf="http://www.w3.org/1999/02/22-rdf-syntax-ns#" xmlns:xlink="http://www.w3.org/1999/xlink">
 <defs>
 <style type="text/css" id="current-color-scheme">
            .ColorScheme-Text {
                color:#039bfc;
            }
        </style>

        <filter id="glow" x="-50%" y="-50%" width="200%" height="200%">
            <feComponentTransfer in="SourceAlpha" result="adjustedAlpha">
                <feFuncA type="table" tableValues="0 0.5 1"/>
            </feComponentTransfer>
            <feGaussianBlur in="adjustedAlpha" stdDeviation="2" result="blur"/>
            <feFlood flood-color="#039bfc" result="color"/>
            <feComposite in="color" in2="blur" operator="in" result="softGlowColored"/>
            <feMerge>
                <feMergeNode in="softGlowColored"/>
                <feMergeNode in="SourceGraphic"/>
            </feMerge>
        </filter>

  <linearGradient id="b" x1="399.57" x2="399.57" y1="545.8" y2="517.8" gradientTransform="matrix(2.1429 0 0 2.1429 -723.44 -1107.5)" gradientUnits="userSpaceOnUse">
   <stop stop-color="#3889e9" offset="0"/>
   <stop stop-color="#5ea5fb" offset="1"/>
  </linearGradient>
  <linearGradient id="b-3" x1="399.57" x2="399.57" y1="545.8" y2="517.8" gradientTransform="matrix(2.1429 0 0 2.1429 -753.02 -1107.5)" gradientUnits="userSpaceOnUse">
   <stop stop-color="#3889e9" offset="0"/>
   <stop stop-color="#5ea5fb" offset="1"/>
  </linearGradient>
  <linearGradient id="linearGradient1299" x1="5" x2="195" y1="174.76" y2="174.76" gradientTransform="matrix(.32632 0 0 .095367 -.63187 42.834)" gradientUnits="userSpaceOnUse">
   <stop stop-color="#039bfc" stop-opacity="0" offset="0"/>
   <stop stop-color="#039bfc" offset=".225"/>
   <stop stop-color="#039bfc" offset=".5"/>
   <stop stop-color="#039bfc" offset=".775"/>
   <stop stop-color="#039bfc" stop-opacity="0" offset="1"/>
  </linearGradient>
 </defs>

 <circle cx="134.94" cy="32.044" r="0" fill="url(#b)" stroke-width="1.5715"/>
 <circle cx="105.36" cy="32.044" r="0" fill="url(#b-3)" stroke-width="1.5715"/>
 <rect x=".99971" y="59" width="62.001" height="1" ry="0" fill="url(#linearGradient1299)" stroke-width="3.7796" style="mix-blend-mode:normal;paint-order:stroke fill markers" filter="url(#glow)"/>
 <g stroke-linecap="round" stroke-linejoin="round">
  <rect x="9.5" y="9.5" width="45" height="45" ry="5" fill="none" stroke="#039bfc" style="paint-order:stroke fill markers" filter="url(#glow)"/>
 </g>
 <g transform="translate(13,13) scale(0.15)">
	<path style="fill:#039bfc;fill-opacity:1;stroke:none" d="M223.9,69.3h-36.3V54.3c0-20.3,33-21.4,33.3-21.4c6-0.1,10.9-5.3,10.8-11.7c-0.2-6.3-5.2-11.1-11.2-11.2c-12.4,0.3-31.8,4.5-43.9,16.8C164.4,14.5,145,10.3,132.7,10c-6.2,0-11.2,4.9-11.4,11.2c0,6.3,4.7,11.5,10.9,11.7c0.3,0,33.3,0.9,33.3,21.4v15.1H32c-12.2,0-22,11.8-22,24.3v71.2c0,12.5,10.6,20.8,22.9,20.8h132.7v24c-4.1,4.4-14.6,13.4-33.2,13.4c-6,0-11.1,5.2-11.1,11.5c0,6.2,5,11.3,11.1,11.3c21.3,0,35.7-8.6,44.1-15.8c8.4,7.3,22.8,15.8,44.1,15.8c6.2,0,11.1-5.2,11.1-11.3c0-6.4-4.9-11.5-11.1-11.5c-18.6,0-29-9-33-13.3v-24.2h37.2c12.1,0,21.2-8.3,21.2-20.8V93.6C246,81.1,236,69.3,223.9,69.3z M24.6,172.4L24.2,83l141.5,0.3V173L24.6,172.4z M231.4,173.3l-43.8-0.2V83.4l43.8,0.1V173.3z M128.3,143l-73.9-0.4l-0.4-29.4h73.9L128.3,143z"/>
 </g>
</svg>
