<?xml version="1.0" encoding="UTF-8"?>
<svg width="64" height="64" version="1.1" xmlns="http://www.w3.org/2000/svg" xmlns:cc="http://creativecommons.org/ns#" xmlns:dc="http://purl.org/dc/elements/1.1/" xmlns:rdf="http://www.w3.org/1999/02/22-rdf-syntax-ns#" xmlns:xlink="http://www.w3.org/1999/xlink">
 <defs>
 <style type="text/css" id="current-color-scheme">
            .ColorScheme-Text {
                color:#039bfc;
            }
        </style>

        <filter id="glow" x="-50%" y="-50%" width="200%" height="200%">
            <feComponentTransfer in="SourceAlpha" result="adjustedAlpha">
                <feFuncA type="table" tableValues="0 0.5 1"/>
            </feComponentTransfer>
            <feGaussianBlur in="adjustedAlpha" stdDeviation="2" result="blur"/>
            <feFlood flood-color="#039bfc" result="color"/>
            <feComposite in="color" in2="blur" operator="in" result="softGlowColored"/>
            <feMerge>
                <feMergeNode in="softGlowColored"/>
                <feMergeNode in="SourceGraphic"/>
            </feMerge>
        </filter>

  <linearGradient id="b" x1="399.57" x2="399.57" y1="545.8" y2="517.8" gradientTransform="matrix(2.1429 0 0 2.1429 -723.44 -1107.5)" gradientUnits="userSpaceOnUse">
   <stop stop-color="#3889e9" offset="0"/>
   <stop stop-color="#5ea5fb" offset="1"/>
  </linearGradient>
  <linearGradient id="b-3" x1="399.57" x2="399.57" y1="545.8" y2="517.8" gradientTransform="matrix(2.1429 0 0 2.1429 -753.02 -1107.5)" gradientUnits="userSpaceOnUse">
   <stop stop-color="#3889e9" offset="0"/>
   <stop stop-color="#5ea5fb" offset="1"/>
  </linearGradient>
  <linearGradient id="linearGradient1299" x1="5" x2="195" y1="174.76" y2="174.76" gradientTransform="matrix(.32632 0 0 .095367 -.63187 42.834)" gradientUnits="userSpaceOnUse">
   <stop stop-color="#039bfc" stop-opacity="0" offset="0"/>
   <stop stop-color="#039bfc" offset=".225"/>
   <stop stop-color="#039bfc" offset=".5"/>
   <stop stop-color="#039bfc" offset=".775"/>
   <stop stop-color="#039bfc" stop-opacity="0" offset="1"/>
  </linearGradient>
 </defs>

 <circle cx="134.94" cy="32.044" r="0" fill="url(#b)" stroke-width="1.5715"/>
 <circle cx="105.36" cy="32.044" r="0" fill="url(#b-3)" stroke-width="1.5715"/>
 <rect x=".99971" y="59" width="62.001" height="1" ry="0" fill="url(#linearGradient1299)" stroke-width="3.7796" style="mix-blend-mode:normal;paint-order:stroke fill markers" filter="url(#glow)"/>
 <g stroke-linecap="round" stroke-linejoin="round">
  <rect x="9.5" y="9.5" width="45" height="45" ry="5" fill="none" stroke="#039bfc" style="paint-order:stroke fill markers" filter="url(#glow)"/>
 </g>
 <g transform="translate(15,15) scale(0.075)">
	<path xmlns="http://www.w3.org/2000/svg" d="M161.9,21.9v21.9h131.2V0H161.9v43.7V21.9v21.9h131.2V0H161.9v43.7V21.9z M406.6,425.9L393,408.7l-52.4,41.6l-79.4-102.1   l-53,61.8l-38.9-217.9l198.1,99.1l-78.6,26.2l100.9,122.4L406.6,425.9L393,408.7L406.6,425.9l16.9-13.9l-60.4-73.2l118.3-39.4   L110.8,114l70.4,394.5l78.2-91.2l73.7,94.7l104.5-82.9l-14.2-17.2L406.6,425.9z M424.3,87.5V0h-87.5v43.7l43.7,0l0,43.7H424.3   L424.3,87.5z M118.1,0H30.7v87.5h43.7l0-43.7l43.7,0V0L118.1,0z M30.7,306.2v87.5h87.5v-43.7l-43.7,0l0-43.7H30.7z M402.5,131.2   h-21.9v87.5h43.7v-87.5h-43.7H402.5h-21.9v87.5h43.7v-87.5h-43.7H402.5z M52.5,262.4h21.9V131.2H30.7v131.2h43.7H52.5h21.9V131.2 H30.7v131.2h43.7H52.5z" style="fill:currentColor;fill-opacity:1;stroke:none" id="path8" class="ColorScheme-Text" filter="url(#glow)"/>
 </g>
</svg>
