<?xml version="1.0" encoding="UTF-8"?>
<svg width="64" height="64" version="1.1" xmlns="http://www.w3.org/2000/svg" xmlns:cc="http://creativecommons.org/ns#" xmlns:dc="http://purl.org/dc/elements/1.1/" xmlns:rdf="http://www.w3.org/1999/02/22-rdf-syntax-ns#" xmlns:xlink="http://www.w3.org/1999/xlink">
 <defs>
 <style type="text/css" id="current-color-scheme">
            .ColorScheme-Text {
                color:#039bfc;
            }
        </style>

        <filter id="glow" x="-50%" y="-50%" width="200%" height="200%">
            <feComponentTransfer in="SourceAlpha" result="adjustedAlpha">
                <feFuncA type="table" tableValues="0 0.5 1"/>
            </feComponentTransfer>
            <feGaussianBlur in="adjustedAlpha" stdDeviation="2" result="blur"/>
            <feFlood flood-color="#039bfc" result="color"/>
            <feComposite in="color" in2="blur" operator="in" result="softGlowColored"/>
            <feMerge>
                <feMergeNode in="softGlowColored"/>
                <feMergeNode in="SourceGraphic"/>
            </feMerge>
        </filter>

  <linearGradient id="b" x1="399.57" x2="399.57" y1="545.8" y2="517.8" gradientTransform="matrix(2.1429 0 0 2.1429 -723.44 -1107.5)" gradientUnits="userSpaceOnUse">
   <stop stop-color="#3889e9" offset="0"/>
   <stop stop-color="#5ea5fb" offset="1"/>
  </linearGradient>
  <linearGradient id="b-3" x1="399.57" x2="399.57" y1="545.8" y2="517.8" gradientTransform="matrix(2.1429 0 0 2.1429 -753.02 -1107.5)" gradientUnits="userSpaceOnUse">
   <stop stop-color="#3889e9" offset="0"/>
   <stop stop-color="#5ea5fb" offset="1"/>
  </linearGradient>
  <linearGradient id="linearGradient1299" x1="5" x2="195" y1="174.76" y2="174.76" gradientTransform="matrix(.32632 0 0 .095367 -.63187 42.834)" gradientUnits="userSpaceOnUse">
   <stop stop-color="#039bfc" stop-opacity="0" offset="0"/>
   <stop stop-color="#039bfc" offset=".225"/>
   <stop stop-color="#039bfc" offset=".5"/>
   <stop stop-color="#039bfc" offset=".775"/>
   <stop stop-color="#039bfc" stop-opacity="0" offset="1"/>
  </linearGradient>
 </defs>

 <g stroke-linecap="round" stroke-linejoin="round">
  <rect x="9.5" y="9.5" width="45" height="45" ry="5" fill="none" stroke="#039bfc" style="paint-order:stroke fill markers" filter="url(#glow)"/>
 </g>
 <g transform="translate(13,15) scale(0.23)">
	<!-- Background Circle -->
   <path filter="url(#glow)" fill="#039bfc" xmlns="http://www.w3.org/2000/svg" d="M170 20.7c-33 13.7-49 6-63.2-3.6L90.8 73.5c14.3 9.7 31.5 17.7 63.2 3.5l16.3-56.3z"/>
   <path filter="url(#glow)" fill="#039bfc" xmlns="http://www.w3.org/2000/svg" d="M63 134.2c-14.3-9.6-30-17.6-63-3.9l16.2-56.6c33-13.6 49-5.9 63.3 3.8L63 134.2z"/>
   <path filter="url(#glow)" fill="#039bfc" xmlns="http://www.w3.org/2000/svg" d="M82.2 67.3a53.9 53.9 0 0 0-31-11.3c-8.7-.1-19.1 2.4-32.2 7.8L35.2 7.4c33.1-13.7 49-6 63.3 3.7L82.2 67.3z"/>
   <path filter="url(#glow)" fill="#039bfc" xmlns="http://www.w3.org/2000/svg" d="M88 83c14.4 9.6 30.3 17.3 63.3 3.6L135 142.8c-33 13.7-48.9 6-63.2-3.7L88.1 83z"/>
</g>
</svg>
